<?xml version="1.0" encoding="UTF-8"?> <svg xmlns="http://www.w3.org/2000/svg" id="Layer_2" data-name="Layer 2" viewBox="0 0 535.45 159.83"><defs><style> .cls-1 { fill: #b4e2ec; } .cls-1, .cls-2, .cls-3, .cls-4, .cls-5, .cls-6 { stroke-width: 0px; } .cls-2 { fill: #29abe2; } .cls-3 { fill: #8fabd9; } .cls-4 { fill: #919394; } .cls-5 { fill: #f15b28; } .cls-6 { fill: #3b80c1; } </style></defs><g id="Layer_1-2" data-name="Layer 1"><polygon class="cls-4" points="17.65 30.3 0 10.69 0 45.38 2.67 45.38 2.67 17.52 17.65 34.17 32.59 17.52 32.59 45.38 35.26 45.38 35.26 10.69 17.65 30.3"></polygon><polygon class="cls-4" points="60.68 28.87 49.8 28.87 49.8 42.89 65.33 42.89 65.33 45.38 47.13 45.38 47.13 11.8 63.45 11.8 63.45 14.29 49.8 14.29 49.8 26.38 60.68 26.38 60.68 28.87"></polygon><polygon class="cls-4" points="83.62 45.38 83.62 14.29 71.26 14.29 71.26 11.8 98.46 11.8 98.46 14.29 86.3 14.29 86.3 45.38 83.62 45.38"></polygon><g><path class="cls-4" d="m118.05,33.06c-1.24,0-2.82-.28-3.12-.37l12.56,11.76-1.88,1.75-16.32-15.22h7.22c4.2,0,8.7-3.09,8.7-8.49,0-3.88-3.16-8.21-8.8-8.21h-8.36v31.09h-2.67V11.8h11.03c7.27,0,11.47,5.49,11.47,10.7,0,5.81-4.55,10.56-9.84,10.56"></path><path class="cls-4" d="m153.61,13.37c-8.26,0-16.12,6.09-16.12,15.27,0,7.7,6.53,15.08,16.37,15.08,8.31,0,16.17-6.09,16.17-15.18,0-8.3-6.97-15.17-16.42-15.17m0-2.49c11.27,0,19.09,8.35,19.09,17.53,0,10.51-8.95,17.8-18.79,17.8-11.27,0-19.09-8.35-19.09-17.53,0-10.52,8.95-17.8,18.8-17.8"></path></g><path class="cls-4" d="m214.73,16.6l-7.17,14.39h14.39l-7.22-14.39Zm.05-5.86l17.06,34.14-2.42,1.06-6.23-12.45h-16.86l-6.23,12.45-2.42-1.06,17.11-34.14Z"></path><polygon class="cls-4" points="247.67 45.38 247.67 14.29 235.3 14.29 235.3 11.8 262.5 11.8 262.5 14.29 250.34 14.29 250.34 45.38 247.67 45.38"></polygon><polygon class="cls-4" points="269.43 11.8 272.1 11.8 272.1 42.89 291.09 42.89 291.09 45.38 269.43 45.38 269.43 11.8"></polygon><path class="cls-4" d="m312.35,16.6l-7.18,14.39h14.4l-7.22-14.39Zm.05-5.86l17.07,34.14-2.43,1.06-6.23-12.45h-16.87l-6.23,12.45-2.43-1.06,17.11-34.14Z"></path><polygon class="cls-4" points="363.93 39.66 363.93 11.8 366.61 11.8 366.61 46.49 340.54 17.52 340.54 45.38 337.87 45.38 337.87 10.69 363.93 39.66"></polygon><polygon class="cls-4" points="385.89 45.38 385.89 14.29 373.53 14.29 373.53 11.8 400.73 11.8 400.73 14.29 388.56 14.29 388.56 45.38 385.89 45.38"></polygon><path class="cls-4" d="m421.25,16.6l-7.17,14.39h14.39l-7.22-14.39Zm.05-5.86l17.07,34.14-2.42,1.06-6.23-12.45h-16.86l-6.23,12.45-2.42-1.06,17.11-34.14Z"></path><g><path class="cls-5" d="m30.58,51.39c19.53,0,29.58,9.69,29.58,26.66v3.33h-18.99v-4.39c0-7.57-3.65-10.45-10.04-10.45s-10.04,2.88-10.04,10.45c0,21.81,39.25,25.9,39.25,56.19,0,16.96-10.23,26.65-29.94,26.65S.46,150.14.46,133.18v-6.51h18.99v7.57c0,7.58,4.02,10.3,10.4,10.3s10.41-2.72,10.41-10.3c0-21.81-39.25-25.9-39.25-56.19,0-16.96,10.04-26.66,29.58-26.66"></path><path class="cls-5" d="m91.93,67.75v35.9h9.5c6.39,0,9.86-2.43,9.86-10v-15.9c0-7.57-3.47-10-9.86-10h-9.5Zm39.43,11.05v13.78c0,16.96-9.86,26.2-29.94,26.2h-9.5v39.84h-20.08V52.6h29.58c20.08,0,29.94,9.24,29.94,26.2"></path></g><polygon class="cls-5" points="160.77 97.28 188.33 97.28 188.33 112.43 160.77 112.43 160.77 143.48 195.45 143.48 195.45 158.62 140.68 158.62 140.68 52.6 195.45 52.6 195.45 67.75 160.77 67.75 160.77 97.28"></polygon><path class="cls-5" d="m227.05,125h19.35l-9.67-53.62-9.68,53.62Zm45.83,33.62h-20.27l-3.47-19.23h-24.65l-3.47,19.23h-18.44l20.45-106.02h29.39l20.45,106.02Z"></path><polygon class="cls-5" points="308.49 116.37 302.28 126.06 302.28 158.62 282.19 158.62 282.19 52.6 302.28 52.6 302.28 98.8 328.57 52.6 348.65 52.6 320.72 99.86 348.65 158.62 328.02 158.62 308.49 116.37"></polygon><path class="cls-5" d="m383.89,51.39c19.54,0,29.58,9.69,29.58,26.66v3.33h-18.99v-4.39c0-7.57-3.65-10.45-10.04-10.45s-10.04,2.88-10.04,10.45c0,21.81,39.25,25.9,39.25,56.19,0,16.96-10.22,26.65-29.94,26.65s-29.94-9.69-29.94-26.65v-6.51h18.99v7.57c0,7.58,4.01,10.3,10.4,10.3s10.41-2.72,10.41-10.3c0-21.81-39.25-25.9-39.25-56.19,0-16.96,10.04-26.66,29.58-26.66"></path><g><path class="cls-2" d="m482.69,86.21h0v-.14c-1.58-.02-3.07-.03-4.31-.04-.22,0-.42,0-.62,0-.73,0-1.47,0-2.2,0h0v21.35c0,1.12-.68,2.02-1.51,2.02h-41.1c-.83,0-1.5-.91-1.5-2.02v-45.85c0-1.12.67-2.02,1.5-2.02h21.96s.02,0,.02,0h0s6.11,0,6.11,0h1.46s.18,0,.18,0h0s11.37,0,11.37,0c.83,0,1.51.9,1.51,2.02v17.35h0s2.83,0,2.83,0h4.38s0,0,0,0c.04-4.81.09-9.62.19-14.43.15-7.04-4.33-11.36-10.93-11.43-3.12-.04-6.23-.03-9.34-.04h0s0,0,0,0c-.5,0-1.06,0-1.64,0-7.12,0-19.87-.02-25.98,0-6.23.03-11.3,4.18-11.21,11.29.16,13.56-.04,27.14.08,40.7.06,7.15,3.49,10.53,10.36,10.59,4.26.04,8.52.03,12.78.02,2.16,0,4.33,0,6.49,0,6.71,0,7.74,1.27,6.45,8.18-.36,1.95-.74,4.04-1.69,5.71-3.01,5.37-6.27,10.58-9.46,15.85-1.28,2.1-2.62,4.19-3.92,6.28.29.27.57.55.87.81.72-.26,1.47-.44,2.15-.81,7.85-4.25,15.15-9.29,21.46-15.85,8.98-9.35,13.91-20.27,13.51-33.84-.15-5.22-.22-10.45-.23-15.68Z"></path><path class="cls-6" d="m482.69,86.03c-.47,0-.94,0-1.41,0-.97,0-1.93,0-2.9,0h0c1.23.01,2.73.03,4.31.04v-.02s0,0,0-.01Z"></path><polygon class="cls-6" points="454.92 59.5 454.92 59.49 454.91 59.49 454.91 59.5 461.03 59.5 461.03 59.5 454.92 59.5"></polygon><path class="cls-6" d="m478.38,86.03h0c-.21,0-.42,0-.62,0,.2,0,.41,0,.62,0Z"></path><polygon class="cls-6" points="482.75 78.88 482.75 78.87 482.75 78.87 482.75 78.87 478.38 78.87 478.38 78.88 482.75 78.88"></polygon><g><path class="cls-6" d="m535.42,67.38c-.51-17.19-.36-34.42,0-51.61.21-9.65-5.93-15.55-14.97-15.65-7.65-.08-15.3-.11-22.95-.11-9.08,0-18.15.04-27.22.09-8.48.04-15.38,5.75-15.25,15.53.15,12.43.08,24.87.06,37.31v.03h5.94s1.64,0,1.64,0h0V9.57c0-1.62.99-2.92,2.21-2.92h60.55c1.22,0,2.21,1.31,2.21,2.92v66.37c0,1.61-.99,2.93-2.21,2.93h-42.69s0,0,0,0h-7.2s-10.67,0-10.67,0c-1.23,0-2.21-1.32-2.21-2.93v-16.44h-7.77v3c0,3,0,6.01.03,9.01.08,9.8,4.78,14.42,14.17,14.49,2.14.02,4.29,0,6.44.02h0c.4,0,1.18,0,2.2.01.21,0,.42,0,.62,0,.97,0,1.93,0,2.9,0,.47,0,.94,0,1.41,0,0,0,0,0,0,.01v.02c5.18.05,11.16.12,11.16.12.54,0,1.08,0,1.63,0,9.12,0,10.54,1.75,8.77,11.25-.5,2.69-1.01,5.56-2.29,7.86-4.09,7.39-8.54,14.56-12.88,21.8-1.75,2.9-3.56,5.77-5.33,8.65.39.37.79.74,1.18,1.1.98-.36,2.02-.6,2.93-1.1,10.66-5.87,20.61-12.78,29.19-21.82,12.23-12.86,18.94-27.89,18.38-46.56Z"></path><polygon class="cls-6" points="475.55 78.87 475.55 78.88 475.55 78.88 478.38 78.88 478.38 78.87 475.55 78.87"></polygon></g><polygon class="cls-6" points="462.5 59.49 462.5 59.5 461.03 59.5 461.03 59.5 462.67 59.5 462.67 59.5 462.67 59.49 462.5 59.49"></polygon></g><path class="cls-1" d="m431.44,61.52v45.85c0,1.12.67,2.02,1.5,2.02h41.1c.83,0,1.51-.91,1.51-2.02v-21.35h0c.73,0,1.47,0,2.2,0-1.02,0-1.8-.01-2.2-.01h0c-2.15,0-4.29,0-6.44-.02-9.4-.07-14.09-4.7-14.17-14.49-.03-3-.03-6-.03-9.01v-3h-21.96c-.83,0-1.5.9-1.5,2.02Z"></path><path class="cls-3" d="m462.67,52.97h0c3.11,0,6.23,0,9.34.04,6.6.07,11.08,4.39,10.93,11.43-.1,4.81-.16,9.62-.19,14.43h42.69c1.22,0,2.21-1.32,2.21-2.93V9.57c0-1.62-.99-2.92-2.21-2.92h-60.55c-1.23,0-2.21,1.31-2.21,2.92v43.39h-1.64s0,0,0,0c.58,0,1.14,0,1.64,0h0Z"></path><path class="cls-5" d="m474.04,59.5h-11.37v16.44c0,1.61.99,2.93,2.21,2.93h10.67v-17.35c0-1.12-.68-2.02-1.51-2.02Z"></path></g></svg> 